<?xml version="1.0" encoding="utf-8"?>
<!-- Generator: Adobe Illustrator 23.0.4, SVG Export Plug-In . SVG Version: 6.00 Build 0)  -->
<svg version="1.1" id="Layer_1" xmlns="http://www.w3.org/2000/svg" xmlns:xlink="http://www.w3.org/1999/xlink" x="0px" y="0px"
	 viewBox="0 0 949.4 3519.5" style="enable-background:new 0 0 949.4 3519.5;" xml:space="preserve">
<style type="text/css">
	.st0{display:none;}
	.st1{display:inline;fill:#F68C1F;}
	.st2{fill:#FDE8D2;}
	.st3{fill:#55C6D3;}
	.st4{fill:#506BDA;}
</style>
<g class="st0">
	<path class="st1" d="M-0.8,71.2C94.5,26.6,210.4-6.1,337,8c390.6,43.7,433.1,483.3,865,605c309.4,87.2,501.9-78,716.3,4.8
		L1918,1161c-115-151-632,104-1168-143c-273-121-596,4.8-751,64.1L-0.8,71.2z"/>
</g>
<g id="Layer_3" class="st0">
	<path class="st1" d="M0,1118.3c-11-11.4,144-498.7,340-637.1c329-246.1,531.5-108.3,770.5-245.4C1809.9-165.4,1845,105.4,1919,152
		c0.5,0.7-0.5,959.4,0,958.7c-191.6,123.6-420.3-45.1-715,65.6c-258.3,97.1-224.5,202.3-551.5,435.9
		C423.3,1775.9,102.4,1820.6,0,1589.4C0.5,1588.7,0,1118.3,0,1118.3z"/>
</g>
<circle class="st2" cx="1889.6" cy="848.9" r="375.3"/>
<circle class="st3" cx="-2" cy="214.9" r="174.9"/>
<circle class="st3" cx="999.6" cy="742.5" r="125.2"/>
<circle class="st3" cx="26.4" cy="1209.2" r="69"/>
<circle class="st3" cx="868" cy="1812" r="50.3"/>
<circle class="st3" cx="86" cy="2140.4" r="72.9"/>
<circle class="st3" cx="861.3" cy="2548.4" r="112.2"/>
<circle class="st3" cx="262.4" cy="2991.4" r="64.2"/>
<circle class="st4" cx="540" cy="2069.7" r="33.4"/>
<circle class="st4" cx="351.7" cy="1606.6" r="55.9"/>
<circle class="st4" cx="97.8" cy="2742.4" r="64.2"/>
<circle class="st4" cx="901.9" cy="3049.5" r="26.2"/>
<circle class="st4" cx="541.6" cy="3403.9" r="36.3"/>
<circle class="st4" cx="42" cy="3493.3" r="26.2"/>
<circle class="st3" cx="650.1" cy="2726.8" r="26.2"/>
<circle class="st3" cx="786.6" cy="1145.2" r="27.4"/>
</svg>
