<?xml version="1.0" encoding="utf-8"?>
<!-- Generator: Adobe Illustrator 23.0.4, SVG Export Plug-In . SVG Version: 6.00 Build 0)  -->
<svg version="1.1" id="Layer_1" xmlns="http://www.w3.org/2000/svg" xmlns:xlink="http://www.w3.org/1999/xlink" x="0px" y="0px"
	 viewBox="0 0 949.4 1748.5" style="enable-background:new 0 0 949.4 1748.5;" xml:space="preserve">
<style type="text/css">
	.st0{display:none;}
	.st1{display:inline;fill:#F68C1F;}
	.st2{fill:#FDE8D2;}
</style>
<g class="st0">
	<path class="st1" d="M-0.8,71.2C94.5,26.6,210.4-6.1,337,8c390.6,43.7,433.1,483.3,865,605c309.4,87.2,501.9-78,716.3,4.8
		L1918,1161c-115-151-632,104-1168-143c-273-121-596,4.8-751,64.1L-0.8,71.2z"/>
</g>
<g id="Layer_3" class="st0">
	<path class="st1" d="M0,1118.3c-11-11.4,144-498.7,340-637.1c329-246.1,531.5-108.3,770.5-245.4C1809.9-165.4,1845,105.4,1919,152
		c0.5,0.7-0.5,959.4,0,958.7c-191.6,123.6-420.3-45.1-715,65.6c-258.3,97.1-224.5,202.3-551.5,435.9
		C423.3,1775.9,102.4,1820.6,0,1589.4C0.5,1588.7,0,1118.3,0,1118.3z"/>
</g>
<path class="st2" d="M4.5,52.2C67,27.3,176.8-0.3,301.6,8.3c129.3,9,179.3,50.4,371.4,91.7c174.6,37.6,218.9,21.7,269.8,39.9
	c307.4,109.5,451.8,837.8,199.4,1255.8c-22.6,37.4-82,133.7-195.5,215.3c-181.5,130.5-373.8,132.1-461.3,131.6
	c-232.2-1.4-405-95.8-484.8-147.5c-65.8-42.7-363-247.6-422.2-629.9C-480.4,586.1-284.4,167,4.5,52.2z"/>
</svg>
