<?xml version="1.0" encoding="utf-8"?>
<!-- Generator: Adobe Illustrator 23.0.4, SVG Export Plug-In . SVG Version: 6.00 Build 0)  -->
<svg version="1.1" xmlns="http://www.w3.org/2000/svg" xmlns:xlink="http://www.w3.org/1999/xlink" x="0px" y="0px"
	 viewBox="0 0 900 900" style="enable-background:new 0 0 900 900;" xml:space="preserve">
<style type="text/css">
	.st0{display:none;}
	.st1{display:inline;}
	.st2{opacity:0.5;fill:#54C5D3;}
</style>
<g id="Layer_2" class="st0">
	<g class="st1">
		<path class="st2" d="M720,728.2c-77.5,91.3-188.9,88.1-335.4,83.9c-146-4.2-271.7-7.8-340.9-114.5C-36.7,573.8,16,399.2,29,356.5
			C58.8,257.7,143.4,85.3,251.8,86.3c121.6,1,73.2,43.5,306.2,96c137,29.8,179.1,114,211.8,189.7C824.8,499.4,795.1,639.7,720,728.2
			z"/>
		<path class="st2" d="M157,575.5c-26.5-84.8-62.5-136.2-24.1-240.7s109.9-133.1,181.8-164.9c106.6-47.1,215.8-71.4,284.1-55
			c72.1,17.3,189.6-18.1,258.5,129.2c79.4,190,60.2,369.2-162,505c-145.6,89-318.8,11.6-404.8-25.6
			C204.4,686.2,183.5,660.3,157,575.5z"/>
	</g>
</g>
<g id="Layer_3">
	<g>
		<path class="st2" d="M243.7,247.7c-110.4,98.5-97.4,303,55.6,394.4c112.2,67,295,65.4,406.6,18.2
			C817.5,613,871.6,536.7,889.7,438.6s-48.8-151.4-75.4-166.7C796,261.4,847.4,193,867,163c19.6-30-165.8,46.7-187.5,42.3
			C554.4,174.4,335.4,165.9,243.7,247.7z"/>
		<path class="st2" d="M139.9,216.4c46.8-30.3,139.7-78.4,256.9-80.4c97-2.1,187.7,31,218.4,49.1c96.5,56.8,130.4,218.7,53.8,328.5
			C613.6,593,517,604.3,384.3,619.9c-19.1,2.3-37.8,4.4-56,6.4c-20.8,2.2-158.9,136.5-178.2,137.7c-36.7,2.3,47.3-130.2,16.5-134.8
			c-44-6.5-81.4-22.2-110.8-53.2C-44.9,469.9,24.6,291,139.9,216.4z"/>
	</g>
</g>
</svg>
